:version 1.10
:name ASF
:units
  mass 1
  length 1
  angle deg
:documentation
  ASF file generated by Kaydara
:root
  axis xyz
  order  tx ty tz rx ry rz
  position 0 0 0
  orientation 0 0 0
:bonedata
  begin
    id 1
    name LeftUpLegDummy
    direction 1 -2.30186e-007 -8.31532e-007
    length 2.93387
    axis 0 0 0 xyz
  end
  begin
    id 2
    name LeftUpLeg
    direction -1.82929e-007 -1 -1.48925e-009
    length 17.3336
    axis -3.48766 0.00143442 -0.000521554 xyz
    dof rx ry rz
  end
  begin
    id 3
    name LeftLeg
    direction -1.82929e-007 -1 -5.23717e-011
    length 14.9995
    axis 3.68178 -0.00654042 -0.000282425 xyz
    dof rx ry rz
  end
  begin
    id 4
    name LeftFoot
    direction 8.31532e-007 -4.54534e-011 1
    length 6.74421
    axis 1.87234e-006 4.66016e-005 -5.96866e-006 xyz
    dof rx ry rz
  end
  begin
    id 5
    name LeftToes
    direction 0.00818058 -0.00485161 0.999955
    length 3.85048
    axis 1.06247e-005 4.65869e-005 -5.96999e-006 xyz
    dof rx ry rz
  end
  begin
    id 6
    name SpineDummy
    direction -5.8607e-008 0.943407 -0.331637
    length 5.93572
    axis 0 0 0 xyz
  end
  begin
    id 7
    name Spine
    direction -1.04988e-007 0.999988 0.00495137
    length 10.1015
    axis -0.001389 0.000121417 6.61666e-006 xyz
    dof rx ry rz
  end
  begin
    id 8
    name Spine1
    direction 0 0 0
    length 0
    axis -0.001389 0.00012144 6.56766e-006 xyz
    dof rx ry rz
  end
  begin
    id 9
    name RightShoulderDummy
    direction -0.98348 0.17941 -0.0240696
    length 3.59882
    axis -0.001389 0.00012144 6.56766e-006 xyz
  end
  begin
    id 10
    name RightShoulder
    direction -0.978693 0.204882 0.0135597
    length 2.70001
    axis 0.215806 0.000203631 -0.00679732 xyz
    dof rx ry rz
  end
  begin
    id 11
    name RightArm
    direction -1 3.85509e-006 8.31394e-007
    length 10.2459
    axis -23.2009 -0.134239 -0.964098 xyz
    dof rx ry rz
  end
  begin
    id 12
    name RightForeArm
    direction -1 3.85569e-006 8.3129e-007
    length 8.16799
    axis -9.92322 0.0658061 0.17887 xyz
    dof rx ry rz
  end
  begin
    id 13
    name RightHand
    direction -0.992843 -0.0414604 0.112003
    length 5.28593
    axis -0.00960638 0.00330669 -0.185225 xyz
    dof rx ry rz
  end
  begin
    id 14
    name LeftShoulder1Dummy
    direction 0.983523 0.179172 -0.0240748
    length 3.59866
    axis -0.001389 0.00012144 6.56766e-006 xyz
  end
  begin
    id 15
    name LeftShoulder1
    direction 0.978627 0.205195 0.0135605
    length 2.70019
    axis -0.001389 0.00012144 6.57583e-006 xyz
    dof rx ry rz
  end
  begin
    id 16
    name LeftArm
    direction 1 3.51895e-006 -8.60188e-007
    length 10.2459
    axis -23.1894 0.134785 0.967513 xyz
    dof rx ry rz
  end
  begin
    id 17
    name LeftForeArm
    direction 1 3.51921e-006 -7.32029e-007
    length 8.16799
    axis -9.91835 -0.0656957 -0.177789 xyz
    dof rx ry rz
  end
  begin
    id 18
    name LeftHand
    direction 0.992938 -0.0411636 0.11126
    length 5.32135
    axis -0.00960237 -0.00340661 0.185177 xyz
    dof rx ry rz
  end
  begin
    id 19
    name HEadDummy
    direction 1.01974e-006 0.999861 -0.016675
    length 2.99946
    axis -0.001389 0.00012144 6.56766e-006 xyz
  end
  begin
    id 20
    name HEad
    direction -0.0222689 0.980941 0.193023
    length 5.12695
    axis -0.001389 0.00012144 6.56766e-006 xyz
    dof rx ry rz
  end
  begin
    id 21
    name RightUpLegDummy
    direction -1 2.30186e-007 8.31532e-007
    length 2.93387
    axis 0 0 0 xyz
  end
  begin
    id 22
    name RightUpLeg
    direction -1.82966e-007 -1 1.56832e-007
    length 17.3336
    axis -3.4909 -0.000906625 0.00028951 xyz
    dof rx ry rz
  end
  begin
    id 23
    name RightLeg
    direction -1.82786e-007 -1 -1.80317e-007
    length 14.9995
    axis 3.68513 0.0193739 -0.131021 xyz
    dof rx ry rz
  end
  begin
    id 24
    name RightFoot
    direction 8.31721e-007 -4.63324e-011 1
    length 6.74421
    axis 4.81691e-005 -0.120479 -0.188785 xyz
    dof rx ry rz
  end
  begin
    id 25
    name RightToes
    direction 0.00124746 -0.014064 0.9999
    length 3.85082
    axis 0.000481921 0.542163 -0.142575 xyz
    dof rx ry rz
  end
:hierarchy
  begin
    root LeftUpLegDummy SpineDummy RightUpLegDummy
    LeftUpLegDummy LeftUpLeg
    LeftUpLeg LeftLeg
    LeftLeg LeftFoot
    LeftFoot LeftToes
    SpineDummy Spine
    Spine Spine1
    Spine1 RightShoulderDummy LeftShoulder1Dummy HEadDummy
    RightShoulderDummy RightShoulder
    RightShoulder RightArm
    RightArm RightForeArm
    RightForeArm RightHand
    LeftShoulder1Dummy LeftShoulder1
    LeftShoulder1 LeftArm
    LeftArm LeftForeArm
    LeftForeArm LeftHand
    HEadDummy HEad
    RightUpLegDummy RightUpLeg
    RightUpLeg RightLeg
    RightLeg RightFoot
    RightFoot RightToes
  end

:SAMPLES-PER-SECOND 30
:FULLY-SPECIFIED
:DEGREES
107
root  3.79794 34.3505 16.8316 1.71554 17.6513 -1.51633
LeftUpLeg  -8.94105 13.5006 -1.05447
LeftLeg  10.7119 9.78719 1.19969
LeftFoot  0.465189 -0.000378833 0.0933102
LeftToes  -4.13636 1.92152e-006 4.03786e-008
Spine  2.69034 1.04876 -1.29324
Spine1  5.08551 2.31071 -2.59426
RightShoulder  0.034061 4.33595 5.6644
RightArm  -24.0352 -4.98937 62.5386
RightForeArm  20.7935 60.1385 17.962
RightHand  1.23201 -13.7108 -9.84625
LeftShoulder1  0.0358204 -1.1747 -7.10942
LeftArm  -20.3676 13.3078 -63.2656
LeftForeArm  25.4601 -17.8018 -3.24002
LeftHand  0.0901978 2.83117 3.07953
HEad  0.136934 -25.1878 4.3063
RightUpLeg  -13.3518 -9.34791 -8.75897
RightLeg  38.429 1.53823 1.0468
RightFoot  3.33933 0.00928681 0.170333
RightToes  -40.1345 -0.219558 -0.315881
108
root  3.89259 34.3508 17.0449 1.93778 18.6062 -1.60056
LeftUpLeg  -8.83443 13.2364 -1.01553
LeftLeg  10.6711 9.07708 1.1068
LeftFoot  0.0833803 -1.72217e-005 0.0236604
LeftToes  -4.21471 1.92152e-006 4.03786e-008
Spine  2.67017 1.03273 -1.26637
Spine1  5.05092 2.25925 -2.53624
RightShoulder  0.0349774 4.34207 5.69977
RightArm  -24.349 -5.22469 62.2658
RightForeArm  20.8221 60.1522 17.9724
RightHand  1.20561 -13.6787 -9.65203
LeftShoulder1  0.0363618 -1.17804 -7.11007
LeftArm  -20.4568 13.3472 -62.9698
LeftForeArm  25.2239 -18.0144 -3.28146
LeftHand  0.0926395 2.78034 3.28455
HEad  0.00673853 -25.7452 4.45162
RightUpLeg  -13.0047 -8.42413 -9.01231
RightLeg  31.7082 1.59977 0.840704
RightFoot  3.28648 0.0118368 0.159801
RightToes  -38.2598 -0.204733 -0.305083
109
root  3.96159 34.3514 17.2589 2.20444 19.6131 -1.62395
LeftUpLeg  -8.7774 12.9939 -0.986371
LeftLeg  10.6431 8.28275 1.00647
LeftFoot  -0.168769 -2.35041e-005 -0.0159675
LeftToes  -4.48776 1.92152e-006 4.03786e-008
Spine  2.64872 1.04134 -1.26713
Spine1  5.01094 2.2577 -2.5256
RightShoulder  0.0361382 4.34144 5.73124
RightArm  -24.5714 -5.48325 62.0533
RightForeArm  20.726 60.0924 17.9272
RightHand  1.17696 -13.4921 -9.55079
LeftShoulder1  0.0365319 -1.1965 -7.15358
LeftArm  -20.4629 13.3527 -62.6764
LeftForeArm  25.1465 -18.0668 -3.2917
LeftHand  0.0920718 2.72942 3.22865
HEad  -0.26455 -26.448 4.68781
RightUpLeg  -12.7395 -7.56269 -9.29229
RightLeg  25.726 2.34367 0.943685
RightFoot  4.09997 0.00913043 0.231253
RightToes  -36.2308 -0.189095 -0.292856
110
root  4.00707 34.3563 17.4857 2.48514 20.7539 -1.62997
LeftUpLeg  -8.70238 12.7492 -0.932
LeftLeg  10.5283 7.41509 0.886536
LeftFoot  -0.318731 -0.000393923 -0.034124
LeftToes  -4.79672 1.92152e-006 4.03786e-008
Spine  2.62541 1.05252 -1.26726
Spine1  4.96827 2.26434 -2.51595
RightShoulder  0.0375589 4.30011 5.78343
RightArm  -24.6109 -5.74944 61.8268
RightForeArm  20.7529 60.1048 17.9366
RightHand  1.13637 -13.388 -9.28514
LeftShoulder1  0.0364279 -1.19076 -7.18811
LeftArm  -20.636 13.4213 -62.5135
LeftForeArm  25.226 -18.0762 -3.29351
LeftHand  0.0933441 2.7128 3.37089
HEad  -0.803542 -27.1955 4.93896
RightUpLeg  -12.5724 -7.14184 -9.46
RightLeg  20.9798 3.80043 1.18077
RightFoot  5.2423 -0.00148021 0.409827
RightToes  -34.7262 -0.177784 -0.283436
111
root  4.02719 34.3681 17.7103 2.73696 21.9725 -1.69839
LeftUpLeg  -8.63727 12.2815 -0.776168
LeftLeg  10.3752 6.70357 0.783674
LeftFoot  -0.383396 -0.00171717 -0.0389926
LeftToes  -5.13059 1.92152e-006 4.03786e-008
Spine  2.60646 1.05875 -1.22251
Spine1  4.93226 2.27338 -2.43795
RightShoulder  0.0391828 4.35507 5.81802
RightArm  -24.7443 -5.97477 61.6532
RightForeArm  20.8434 60.1248 17.9518
RightHand  1.09068 -13.2784 -8.97551
LeftShoulder1  0.036147 -1.20789 -7.18918
LeftArm  -21.048 13.6484 -62.5461
LeftForeArm  25.2249 -18.0443 -3.28729
LeftHand  0.0937882 2.70696 3.45605
HEad  -1.54264 -27.8822 5.18138
RightUpLeg  -12.6796 -7.54665 -9.41479
RightLeg  18.0247 5.59576 1.42813
RightFoot  7.41222 -0.0266483 0.788875
RightToes  -36.6974 -0.192653 -0.295717
112
root  4.01888 34.3753 17.9356 2.93625 23.1133 -1.75761
LeftUpLeg  -8.6173 11.8989 -0.553179
LeftLeg  10.4184 5.93305 0.69833
LeftFoot  -0.477333 -0.00299085 -0.0446969
LeftToes  -5.70962 1.92152e-006 4.03786e-008
Spine  2.59813 1.11826 -1.16347
Spine1  4.91653 2.39684 -2.33823
RightShoulder  0.0410343 4.39252 5.82452
RightArm  -24.8423 -6.04032 61.5726
RightForeArm  20.7015 60.0702 17.9105
RightHand  1.07906 -13.2569 -8.89139
LeftShoulder1  0.0357862 -1.2226 -7.22319
LeftArm  -21.2893 13.8893 -62.6241
LeftForeArm  25.1211 -17.9068 -3.26052
LeftHand  0.093326 2.6927 3.47059
HEad  -2.29991 -28.6032 5.34841
RightUpLeg  -12.9817 -8.26968 -9.25988
RightLeg  16.9388 6.06763 1.42694
RightFoot  9.53225 -0.0581432 1.07481
RightToes  -40.8935 -0.22566 -0.320114
113
root  3.99129 34.3792 18.1724 3.11423 24.3564 -1.73873
LeftUpLeg  -8.54569 11.4142 -0.337108
LeftLeg  10.4399 5.15452 0.608772
LeftFoot  -0.532711 -0.0046037 -0.0437417
LeftToes  -6.30751 1.92152e-006 4.03786e-008
Spine  2.59588 1.16242 -1.12186
Spine1  4.91713 2.49748 -2.27658
RightShoulder  0.0431272 4.45271 5.87719
RightArm  -24.8868 -5.98253 61.4596
RightForeArm  20.8876 59.9405 17.8137
RightHand  1.00684 -12.9017 -8.51294
LeftShoulder1  0.0354428 -1.20255 -7.26099
LeftArm  -21.5051 14.1795 -62.7307
LeftForeArm  25.2569 -17.7463 -3.22929
LeftHand  0.0917812 2.7358 3.4356
HEad  -3.02273 -29.381 5.55741
RightUpLeg  -13.0561 -9.03547 -9.16652
RightLeg  17.3503 5.49744 1.33477
RightFoot  9.62319 -0.0514622 0.988834
RightToes  -41.6394 -0.23171 -0.324194
114
root  3.94221 34.3679 18.4327 3.28188 25.7032 -1.57584
LeftUpLeg  -8.53005 10.9943 -0.179897
LeftLeg  10.732 4.19708 0.517355
LeftFoot  -0.730894 -0.00561447 -0.0493003
LeftToes  -6.81437 1.92152e-006 4.03786e-008
Spine  2.59772 1.20061 -1.10121
Spine1  4.91122 2.5879 -2.25167
RightShoulder  0.0454672 4.52443 5.98977
RightArm  -24.8184 -5.73241 61.1769
RightForeArm  21.2562 59.8463 17.7443
RightHand  0.85431 -12.3633 -7.5014
LeftShoulder1  0.0352138 -1.11814 -7.36323
LeftArm  -21.7401 14.5005 -62.8231
LeftForeArm  25.4551 -17.5373 -3.18869
LeftHand  0.0900412 2.70548 3.35574
HEad  -3.73376 -30.2604 5.63279
RightUpLeg  -12.7543 -10.0224 -9.20144
RightLeg  18.2392 5.1992 1.3478
RightFoot  8.09371 -0.0301065 0.803018
RightToes  -41.038 -0.231364 -0.320911
115
root  3.89583 34.3661 18.6935 3.39252 27.1002 -1.49788
LeftUpLeg  -8.55772 9.94881 0.0569696
LeftLeg  11.1429 3.81165 0.497514
LeftFoot  -0.91879 -0.00621645 -0.0569149
LeftToes  -7.06643 1.92152e-006 4.03786e-008
Spine  2.60578 1.31993 -1.01664
Spine1  4.90745 2.85311 -2.11679
RightShoulder  0.0502835 4.664 6.2418
RightArm  -25.009 -5.15486 60.4664
RightForeArm  20.5936 59.5527 17.5283
RightHand  0.610853 -11.6649 -5.60157
LeftShoulder1  0.0347153 -0.936111 -7.53568
LeftArm  -22.0665 14.7121 -63.0968
LeftForeArm  25.7583 -17.3536 -3.15303
LeftHand  0.0879988 2.78619 3.32367
HEad  -4.65781 -31.3376 5.69942
RightUpLeg  -12.1476 -11.1552 -9.09763
RightLeg  18.3366 4.76163 1.24317
RightFoot  7.45561 -0.0204652 0.691586
RightToes  -41.0936 -0.227278 -0.321216
